<svg id="Ebene_1" data-name="Ebene 1" xmlns="http://www.w3.org/2000/svg" viewBox="0 0 730 731"><defs><style>.cls-1{fill:#f80;}.cls-2{fill:#fff;}.cls-3{fill:#0784bd;}</style></defs><title>icon_schpasti</title><path class="cls-1" d="M731,732H1V1H731Z" transform="translate(-1 -1)"/><path class="cls-2" d="M222.49,640.93c-36.18-2.19-68.26-14.69-93.59-41.49-18.92-20-30.76-44-34.07-71.3-2.5-20.73-2.49-323.43,5.61-345.79,18.21-50.22,54.33-79.14,106.64-87.2,18.66-2.87,308.68-3.1,332.2,2.57,50.11,12.07,89.32,54.17,98,104.93,3.53,20.78,4.14,309,4.13,432.15,0,8-.06,8.1-8,8.1C567,642.91,245.58,642.32,222.49,640.93Zm264.6-194.57c2.48-1.07,4.12-1.75,5.75-2.5,6.93-3.19,14.22-5.8,20.74-9.7,28-16.73,44.14-40.08,43.3-74.31-1-39.47-.19-79-.27-118.49a147.6,147.6,0,0,0-1-16.41c-2.91-25.4-26.44-47.2-52-47.6-25.32-.39-50.66-.16-76-.16-65.16,0-130.33.39-195.49-.18-28.55-.25-57.13,24.39-57,57.3.39,71,.21,142,0,213a160.9,160.9,0,0,0,5.18,41.38c6.3,24.06,16.6,45.94,35.08,63.33A16.71,16.71,0,0,0,228,557c26.49-.21,53-.09,79.49-.11,1.69,0,3.38-.17,5.79-.3l-4.9-6.29C283,517.82,268.52,481,268,439.75c-.74-54.82-.16-109.66-.27-164.49,0-4.66,1.46-6.52,6.31-6.52q92,.17,184,0c4.83,0,6.37,1.79,6.34,6.49-.15,27-.19,54,0,81,0,5.18-1.7,6.41-6.65,6.36-25-.24-50-.06-75-.16-3.53,0-5.56.46-5.53,4.79.18,23.5,0,47,.14,70.5,0,7.05,4,11.48,11,11.6,4.43.07,6.46,2.1,8.42,5.51,18.66,32.51,37.47,64.93,56.08,97.47,1.89,3.3,3.93,4.73,7.81,4.71,27.17-.15,54.33-.07,81.5-.1,1.53,0,3.07-.24,5.31-.43Z" transform="translate(-1 -1)"/><path class="cls-3" d="M487.09,446.36l60.37,110.11c-2.24.19-3.78.43-5.31.43-27.17,0-54.33,0-81.5.1-3.88,0-5.92-1.41-7.81-4.71-18.61-32.54-37.42-65-56.08-97.47-2-3.41-4-5.44-8.42-5.51-7-.12-11-4.55-11-11.6-.1-23.5,0-47-.14-70.5,0-4.33,2-4.8,5.53-4.79,25,.1,50-.08,75,.16,4.95.05,6.69-1.18,6.65-6.36-.23-27-.19-54,0-81,0-4.7-1.51-6.49-6.34-6.49q-92,.17-184,0c-4.85,0-6.32,1.86-6.31,6.52.11,54.83-.47,109.67.27,164.49.55,41.29,15,78.07,40.41,110.57l4.9,6.29c-2.41.13-4.1.3-5.79.3-26.5,0-53-.1-79.49.11a16.71,16.71,0,0,1-12.44-5c-18.48-17.39-28.78-39.27-35.08-63.33a160.9,160.9,0,0,1-5.18-41.38c.17-71,.35-142,0-213-.18-32.91,28.4-57.55,57-57.3,65.16.57,130.33.17,195.49.18,25.33,0,50.67-.23,76,.16,25.52.4,49.05,22.2,52,47.6a147.6,147.6,0,0,1,1,16.41c.08,39.5-.7,79,.27,118.49.84,34.23-15.27,57.58-43.3,74.31-6.52,3.9-13.81,6.51-20.74,9.7C491.21,444.61,489.57,445.29,487.09,446.36Z" transform="translate(-1 -1)"/></svg>